<svg width="300" height="300" viewBox="0 0 300 300" fill="none" xmlns="http://www.w3.org/2000/svg">
<g clip-path="url(#clip0_1_38)">
<path d="M110.198 174.672C110.934 159.058 123.459 142.554 139.553 134.805C153.742 127.975 163.135 126.737 204.015 126.313C208.777 126.263 231.701 126.222 254.957 126.222L297.239 126.221V126.483C297.239 126.781 296.348 134.122 295.915 137.392C283.875 228.299 233.029 279.849 148.768 286.575C142.325 287.089 138.954 287.216 129.05 287.318C114.166 287.47 106.062 287.765 102.085 288.299C100.26 288.543 100.196 288.571 99.299 289.489C97.5111 291.319 90.9016 296.719 86.2026 300.19L85.8495 300.451V299.84C85.8495 299.504 85.9769 297.142 86.1326 294.59C86.288 292.039 86.5004 288.559 86.6044 286.858C87.1804 277.415 87.5223 272.915 88.0662 267.609C88.6741 261.679 89.0114 259.283 89.7562 255.608C90.7014 250.941 91.8388 243.86 92.6773 237.421C93.659 229.883 94.2984 228.379 97.1198 226.968C100.746 225.155 105.447 224.821 127.39 224.817C141.422 224.814 157.116 224.689 161.552 224.543C186.611 223.723 193.563 220.9 201.128 208.473C202.822 205.691 207.29 197.178 209.169 193.153C216.186 178.122 212.708 175.701 182.885 174.861C180.716 174.801 166.032 174.745 144.777 174.717L110.198 174.672ZM30.7903 248.099C28.6222 247.389 26.1221 245.291 22.0712 240.784C-0.220985 215.984 -5.98389 177.639 6.41473 136.607C18.7374 95.8261 46.9654 58.5151 84.0611 33.9767C119.427 10.5819 138.798 6.36953 218.133 4.82031C251.266 4.17357 271.971 3.04246 284.91 1.17296C300.694 -1.10779 301.026 -0.912119 299.206 9.62141C295.29 32.2823 290.611 41.8375 280.11 48.6238C268.812 55.9236 252.748 59.1402 213.474 61.9664C192.183 63.4981 174.894 66.2673 158.509 70.7691C96.9133 87.6931 60.6799 127.749 44.2965 197.031C39.9471 215.424 37.0316 231.153 36.8153 237.393C36.5983 243.649 35.6293 246.764 33.5239 247.975C32.9594 248.299 31.5913 248.362 30.7903 248.099Z" fill="#00E676"/>
</g>
<defs>
<clipPath id="clip0_1_38">
<rect width="300" height="300" fill="white"/>
</clipPath>
</defs>
</svg>
